<?xml version="1.0" standalone="no"?><!DOCTYPE svg PUBLIC "-//W3C//DTD SVG 1.1//EN" "http://www.w3.org/Graphics/SVG/1.1/DTD/svg11.dtd"><svg t="1640945332147" class="icon" viewBox="0 0 1024 1024" version="1.1" xmlns="http://www.w3.org/2000/svg" p-id="3913" xmlns:xlink="http://www.w3.org/1999/xlink" width="128" height="128"><defs><style type="text/css"></style></defs><path d="M930.252249 895.932263H93.567119c-48.770506 0-88.328806-39.5583-88.328805-88.328806V353.315223c0-48.770506 39.5583-88.328806 88.328805-88.328806h115.604163c13.727994 0 27.094726-12.102311 28.359147-25.830305l3.431998-36.487564c4.515788-46.78356 46.422297-84.896807 93.56712-84.896807h354.940906c47.144823 0 89.051332 38.113247 93.56712 84.896807l3.431998 36.487564c1.264421 13.727994 14.631152 25.830305 28.359147 25.830305h115.604163c48.770506 0 88.328806 39.5583 88.328805 88.328806v454.288234c-0.180632 48.770506-39.738931 88.328806-88.509437 88.328806zM93.567119 330.375022c-12.644205 0-22.940201 10.295996-22.940201 22.940201v454.288234c0 12.463574 10.476627 22.940201 22.940201 22.940201H930.252249c12.463574 0 22.940201-10.476627 22.940201-22.940201V353.315223c0-12.644205-10.295996-22.940201-22.940201-22.940201h-115.604163c-47.144823 0-89.051332-38.113247-93.567119-84.896807l-3.431999-36.487564c-1.264421-13.727994-14.631152-25.830305-28.359146-25.830305H334.529547c-13.727994 0-27.094726 12.102311-28.359147 25.830305l-3.431998 36.487564c-4.515788 46.78356-46.422297 84.896807-93.56712 84.896807h-115.604163z" p-id="3914"></path><path d="M511.909684 768.045158c-117.049215 0-212.242018-95.192803-212.242018-212.242018s95.192803-212.242018 212.242018-212.242018S724.332334 438.573293 724.332334 555.80314s-95.373434 212.242018-212.42265 212.242018z m0-359.276063c-80.922914 0-146.853413 65.930499-146.853413 146.853413s65.930499 146.853413 146.853413 146.853414 146.853413-65.930499 146.853414-146.853414-65.749868-146.853413-146.853414-146.853413z" p-id="3915"></path></svg>