<?xml version="1.0" standalone="no"?><!DOCTYPE svg PUBLIC "-//W3C//DTD SVG 1.1//EN" "http://www.w3.org/Graphics/SVG/1.1/DTD/svg11.dtd"><svg t="1637908888188" class="icon" viewBox="0 0 1024 1024" version="1.1" xmlns="http://www.w3.org/2000/svg" p-id="12417" xmlns:xlink="http://www.w3.org/1999/xlink" width="40" height="40"><defs><style type="text/css"></style></defs><path d="M315.9 333.7a111.84 109.95 0 1 0 223.68 0 111.84 109.95 0 1 0-223.68 0Z" fill="#22A1E0" p-id="12418"></path><path d="M627.38 705.43c0.79 6.12-1.38 12.28-5.86 16.5-51.27 48.26-120.2 77.82-196.01 77.82-75.98 0-145.06-29.69-196.36-78.16-4.58-4.33-6.69-10.66-5.76-16.9 22.21-149.93 104.14-261.04 201.95-261.04 99.85 0.01 183 112.35 202.04 261.78zM770.3 453.95H597.04c-15.88 0-28.88-12.96-28.88-28.8s12.99-28.8 28.88-28.8H770.3c15.88 0 28.88 12.96 28.88 28.8 0 15.83-12.99 28.8-28.88 28.8zM770.3 540.67H654.8c-15.88 0-28.88-12.96-28.88-28.8s12.99-28.8 28.88-28.8h115.5c15.88 0 28.88 12.96 28.88 28.8s-12.99 28.8-28.88 28.8zM770.3 626.88h-57.75c-15.88 0-28.88-12.96-28.88-28.8s12.99-28.8 28.88-28.8h57.75c15.88 0 28.88 12.96 28.88 28.8s-12.99 28.8-28.88 28.8z" fill="#22A1E0" p-id="12419"></path></svg>