<?xml version="1.0" standalone="no"?><!DOCTYPE svg PUBLIC "-//W3C//DTD SVG 1.1//EN" "http://www.w3.org/Graphics/SVG/1.1/DTD/svg11.dtd"><svg t="1638155677549" class="icon" viewBox="0 0 1024 1024" version="1.1" xmlns="http://www.w3.org/2000/svg" p-id="1676" data-spm-anchor-id="a313x.7781069.0.i4" width="128" height="128" xmlns:xlink="http://www.w3.org/1999/xlink"><defs><style type="text/css"></style></defs><path d="M512 512m-288 0a288 288 0 1 0 576 0 288 288 0 1 0-576 0Z" fill="#2c2c2c" p-id="1677" data-spm-anchor-id="a313x.7781069.0.i3" class="selected"></path><path d="M714.83 511.77c0 4.62-1.89 8.82-4.93 11.86-3.04 3.04-7.24 4.93-11.86 4.93h-168v168c0 9.23-7.56 16.8-16.8 16.8-4.62 0-8.82-1.89-11.86-4.93-3.04-3.04-4.93-7.24-4.93-11.86v-168h-168c-9.23 0-16.8-7.56-16.8-16.8 0-4.62 1.89-8.82 4.93-11.86 3.04-3.04 7.24-4.93 11.86-4.93h168v-168c0-9.23 7.56-16.8 16.8-16.8 4.62 0 8.82 1.89 11.86 4.93 3.04 3.04 4.93 7.24 4.93 11.86v168h168c9.24 0.01 16.8 7.56 16.8 16.8z" fill="#e6e6e6" p-id="1678" data-spm-anchor-id="a313x.7781069.0.i2" class=""></path></svg>