<?xml version="1.0" standalone="no"?><!DOCTYPE svg PUBLIC "-//W3C//DTD SVG 1.1//EN" "http://www.w3.org/Graphics/SVG/1.1/DTD/svg11.dtd"><svg t="1637909015682" class="icon" viewBox="0 0 1024 1024" version="1.1" xmlns="http://www.w3.org/2000/svg" p-id="13051" xmlns:xlink="http://www.w3.org/1999/xlink" width="40" height="40"><defs><style type="text/css"></style></defs><path d="M582.93 356.86c-7.1 0-13.73-4.2-16.14-10.87-3.02-8.37 1.76-17.45 10.67-20.29 24.23-7.71 47.77-13.72 69.97-17.88 9.23-1.73 18.2 3.9 20.05 12.56 1.84 8.67-4.15 17.09-13.38 18.82-20.76 3.89-42.86 9.54-65.7 16.8-1.81 0.59-3.66 0.86-5.47 0.86zM280.32 535.09c-4.19 0-8.38-1.44-11.67-4.34-6.86-6.05-7.19-16.18-0.74-22.62 9.67-9.65 20.25-19.41 31.46-29.01 6.96-5.95 17.74-5.48 24.08 1.05s5.84 16.65-1.12 22.6c-10.56 9.04-20.52 18.22-29.59 27.27-3.35 3.36-7.88 5.05-12.42 5.05z" fill="#2B97D0" p-id="13052"></path><path d="M518.77 511.17m-224 0a224 224 0 1 0 448 0 224 224 0 1 0-448 0Z" fill="#2B97D0" p-id="13053"></path><path d="M308.46 722.16c-11.42 0-22.18-0.71-32.24-2.14-35.07-4.97-60.61-18.99-73.87-40.55-13.45-21.86-13.42-50.08 0.07-81.61 11.88-27.76 34.52-58.79 65.49-89.72 6.45-6.44 17.23-6.75 24.09-0.7 6.86 6.05 7.19 16.18 0.75 22.62-54.61 54.55-77.94 105.68-60.88 133.42 8 13.02 24.64 21.4 49.44 24.91 26.7 3.78 61.46 1.39 100.51-6.93 9.18-1.96 18.31 3.45 20.39 12.06 2.08 8.62-3.67 17.19-12.85 19.14-29.7 6.33-56.78 9.5-80.9 9.5z" fill="#2B97D0" p-id="13054"></path><path d="M385.58 713.06c-7.78 0-14.81-5.04-16.6-12.46-2.08-8.62 3.67-17.19 12.85-19.14 59.77-12.73 125.51-37.97 190.11-72.99 69.04-37.43 130-82.8 171.63-127.75 6.17-6.67 16.94-7.37 24.04-1.58 7.1 5.8 7.85 15.9 1.68 22.57-44.04 47.56-108.08 95.32-180.31 134.47-67.52 36.6-136.55 63.05-199.61 76.48-1.27 0.27-2.54 0.4-3.79 0.4z" fill="#FFFFFF" p-id="13055"></path><path d="M756.41 507.21c-3.97 0-7.95-1.29-11.17-3.93-7.1-5.8-7.85-15.9-1.68-22.57 46.55-50.26 64.92-95.59 49.14-121.24-15.97-25.97-67.78-33.55-138.59-20.26-9.24 1.73-18.21-3.89-20.05-12.55-1.85-8.67 4.14-17.09 13.37-18.83 40.92-7.68 76.44-9.09 105.55-4.2 32.65 5.49 56.59 19.26 69.24 39.84 12.53 20.38 13.38 46.46 2.43 75.41-9.76 25.82-28.39 53.68-55.37 82.82-3.37 3.65-8.1 5.51-12.87 5.51z" fill="#2B97D0" p-id="13056"></path></svg>