<?xml version="1.0" standalone="no"?><!DOCTYPE svg PUBLIC "-//W3C//DTD SVG 1.1//EN" "http://www.w3.org/Graphics/SVG/1.1/DTD/svg11.dtd"><svg t="1637733871498" class="icon" viewBox="0 0 1024 1024" version="1.1" xmlns="http://www.w3.org/2000/svg" p-id="4100" xmlns:xlink="http://www.w3.org/1999/xlink" width="200" height="200"><defs><style type="text/css"></style></defs><path d="M560 800l-10.464-416h-75.072L464 800h96z m-14.144-493.984c9.44-9.312 14.144-20.672 14.144-34.016 0-13.6-4.704-24.992-14.144-34.208A46.784 46.784 0 0 0 512 224c-13.12 0-24.448 4.608-33.856 13.792A45.856 45.856 0 0 0 464 272c0 13.344 4.704 24.704 14.144 34.016 9.408 9.312 20.704 13.984 33.856 13.984 13.12 0 24.448-4.672 33.856-13.984zM512 32C246.912 32 32 246.912 32 512c0 265.088 214.912 480 480 480 265.088 0 480-214.912 480-480 0-265.088-214.912-480-480-480z m0 64c229.76 0 416 186.24 416 416s-186.24 416-416 416S96 741.76 96 512 282.24 96 512 96z" p-id="4101"></path></svg>