<?xml version="1.0" standalone="no"?><!DOCTYPE svg PUBLIC "-//W3C//DTD SVG 1.1//EN" "http://www.w3.org/Graphics/SVG/1.1/DTD/svg11.dtd"><svg t="1637905863365" class="icon" viewBox="0 0 1024 1024" version="1.1" xmlns="http://www.w3.org/2000/svg" p-id="1207" xmlns:xlink="http://www.w3.org/1999/xlink" width="200" height="200"><defs><style type="text/css"></style></defs><path d="M917.3 432.4c-7.2-38.2-33.7-63.5-68.6-63.5h-1.5c-35.3 0-64.1-28.9-64.1-64.4 0-8 3.9-19.7 5.6-23.8 15-33.8 3.5-75.3-27.7-97.2l-97.8-54.7-4-1.9c-9.8-4.3-20.7-6.3-31.5-6.3-22.6 0-45.4 8.8-60.7 24.7-14.6 15.1-40.8 32.6-52.8 32.6-12.1 0-38.5-17.9-53-33.2-15.3-16.2-38.1-25.3-60.9-25.3-10.7 0-21.5 2-31.5 6.3l-102.1 55.9-4 2.6c-30.4 21.2-41.9 62.6-27 96.4 1.9 4.4 5.8 16 5.8 24 0 35.5-28.8 64.4-66.6 64.4h-1.6c-32.4 0-58.9 25.3-66.1 64.1-2 10.9-8.4 48.9-8.4 80.4 0 31.6 6.4 69.5 8.5 81.1 7.2 38 33.8 63.5 66.2 63.5h3.9c35.3 0 64.1 28.9 64.1 64.3 0 7.7-3.6 19-5.7 23.8-14.9 33.8-3.5 75.2 27.1 96.8l96.4 54.4 3.9 1.9c9.8 4.4 20.6 6.4 31.5 6.4 23 0 46.3-9.3 61.5-26 14.3-15.5 42-34.7 53.9-34.7 12.4 0 39.4 19.1 54.2 35.4 15.3 16.9 37.6 26.7 61.4 26.7 11.2 0 21.8-2.1 31.7-6.4l100.3-55.3 4-2.6c30.3-21.2 41.8-62.6 26.9-96.3-1.8-4.4-5.7-16-5.7-24 0-35.5 28.8-64.3 66.8-64.3 32.6-0.4 60.1-24.9 67.5-64.1 2-10.9 8.4-48.9 8.4-80.4 0.2-31.7-6.3-69.8-8.3-81.3z m-58.1 150.8c-1.4 7.6-5.4 15.7-10.2 15.7-69.8 0-125 54.2-125 123.4 0 20.5 7.9 41 10.3 46.8 4 9 0.8 20.2-6.3 25.1l-0.2 0.1-95.5 52.7c-1.9 0.6-4 0.9-6.4 0.9-6.9 0-13.4-2.7-17.4-7.1-5.4-5.9-51.5-54.9-98.1-54.9-47.4 0-96.9 53.2-97.4 53.7-3.8 4.2-11.2 7-18.1 7-2.6 0-5.1-0.4-7.1-1.2l-1-0.5-91.3-51.5c-6.4-5.6-9-15.9-5.6-23.4 2.1-5 10.7-26.4 10.7-47.7 0-68-55.3-123.4-123.2-123.4h-3.9c-1.4-0.3-6.1-4.8-8.2-15.4-1.7-9.3-7.4-43.7-7.4-70.1 0-21 3.8-49.8 7.4-69.9 1.9-10.1 6.3-14.9 7.7-15.6h1.9c70.4-0.1 125.6-54.3 125.6-123.5 0-21.3-8.6-42.8-10.4-46.9-3.8-8.6-0.9-19.4 5.8-24.6l1-0.6 96.8-53.1c1.9-0.6 4.2-0.9 6.5-0.9 6.9 0 14.1 2.8 18 6.9 2 2.1 49.5 51.6 95.9 51.6 45.8 0 93.2-48.5 95.2-50.6 3.9-4 11.3-6.8 18.2-6.8 2.7 0 5.2 0.4 7.2 1.2l0.8 0.4 92.9 51.9c6.7 5.9 9.5 16.1 6.1 23.8-2.1 4.9-10.7 26.2-10.7 47.7 0 68.1 55.2 123.4 123.2 123.4 8.4 0 11.1 10.8 12 15.4 3.6 19.7 7.5 48.8 7.5 70.1 0.2 21.6-3.8 51.1-7.3 69.9z" fill="#ffffff" p-id="1208"></path><path d="M512.3 355.7c-87 0-157.6 70.5-157.6 157.5s70.5 157.6 157.6 157.6c87 0 157.5-70.5 157.5-157.6 0-87-70.5-157.5-157.5-157.5z m0 256c-54.3 0-98.5-44.1-98.5-98.4 0-54.3 44.2-98.4 98.5-98.4s98.4 44.1 98.4 98.4c0 54.2-44.1 98.4-98.4 98.4z" fill="#ffffff" p-id="1209"></path></svg>